<svg fill="none" height="44" viewBox="0 0 44 44" width="44" xmlns="http://www.w3.org/2000/svg" xmlns:xlink="http://www.w3.org/1999/xlink"><linearGradient id="a"><stop offset="0" stop-color="#3183ff"/><stop offset="1" stop-color="#0b62e4"/></linearGradient><linearGradient id="b" gradientUnits="userSpaceOnUse" x1="19.2726" x2="41.3703" xlink:href="#a" y1="3.66797" y2="18.8565"/><linearGradient id="c" gradientUnits="userSpaceOnUse" x1="19.2726" x2="19.3238" xlink:href="#a" y1="22" y2="23.289"/><linearGradient id="d" gradientUnits="userSpaceOnUse" x1="20.8707" x2="32.9979" xlink:href="#a" y1="3.59375" y2="6.93459"/><g stroke-linecap="round" stroke-linejoin="round" stroke-width="2"><path d="m22.0013 3.66797c-4.8623 0-9.5255 1.93154-12.96362 5.36971-3.43817 3.43812-5.36971 8.10132-5.36971 12.96362s1.93154 9.5255 5.36971 12.9636c3.43812 3.4382 8.10132 5.3697 12.96362 5.3697s9.5255-1.9315 12.9636-5.3697c3.4382-3.4381 5.3697-8.1013 5.3697-12.9636s-1.9315-9.5255-5.3697-12.96362c-3.4381-3.43817-8.1013-5.36971-12.9636-5.36971z" stroke="url(#b)"/><path d="m3.66797 22h36.66663" stroke="url(#c)"/><path d="m22.0016 3.66708-.0183-.01833c4.5833 5.005 7.1866 11.53165 7.3333 18.31505v-.0184c-.1467 6.7834-2.75 13.31-7.3333 18.3334-4.6017-5.0234-7.205-11.55-7.3517-18.3334h-.0183c.1283-6.8016 2.7316-13.32832 7.315-18.35165z" stroke="url(#d)"/></g></svg>