<svg fill="none" height="44" viewBox="0 0 44 44" width="44" xmlns="http://www.w3.org/2000/svg" xmlns:xlink="http://www.w3.org/1999/xlink"><linearGradient id="a"><stop offset="0" stop-color="#3183ff"/><stop offset="1" stop-color="#0b62e4"/></linearGradient><linearGradient id="b" gradientUnits="userSpaceOnUse" x1="26.643" x2="41.0065" xlink:href="#a" y1="16.5" y2="26.3726"/><linearGradient id="c" gradientUnits="userSpaceOnUse" x1="13.7759" x2="28.1464" xlink:href="#a" y1="3.62891" y2="13.4752"/><g stroke-linecap="round" stroke-linejoin="round" stroke-width="2"><path d="m36.6667 16.5h-16.5c-2.0251 0-3.6667 1.6416-3.6667 3.6667v16.5c0 2.025 1.6416 3.6666 3.6667 3.6666h16.5c2.025 0 3.6666-1.6416 3.6666-3.6666v-16.5c0-2.0251-1.6416-3.6667-3.6666-3.6667z" stroke="url(#b)"/><path d="m9.16692 27.5009h-1.83333l-.01833-.0018c-2.035-.0184-3.66667-1.65-3.66667-3.685v-16.50004c-.01833-2.035 1.63167-3.685 3.64833-3.685h16.49998-.0183c2.0167-.01834 3.6667 1.63166 3.6667 3.64833v1.83333" stroke="url(#c)"/></g></svg>