<svg fill="none" height="44" viewBox="0 0 44 44" width="44" xmlns="http://www.w3.org/2000/svg" xmlns:xlink="http://www.w3.org/1999/xlink"><linearGradient id="a"><stop offset="0" stop-color="#3183ff"/><stop offset="1" stop-color="#0b62e4"/></linearGradient><linearGradient id="b" gradientUnits="userSpaceOnUse" x1="18.9971" x2="35.5164" xlink:href="#a" y1="9.16797" y2="27.0105"/><linearGradient id="c" gradientUnits="userSpaceOnUse" x1="28.5134" x2="35.1427" xlink:href="#a" y1="16.5" y2="21.0566"/><g stroke-linecap="round" stroke-linejoin="round" stroke-width="2"><path d="m29.332 9.16797h-14.6666c-7.08769 0-12.83337 5.74563-12.83337 12.83333s5.74568 12.8333 12.83337 12.8333h14.6666c7.0877 0 12.8334-5.7456 12.8334-12.8333s-5.7457-12.83333-12.8334-12.83333z" stroke="url(#b)"/><path d="m29.332 16.5c-1.4587 0-2.8576.5795-3.8891 1.6109-1.0314 1.0315-1.6109 2.4304-1.6109 3.8891s.5795 2.8576 1.6109 3.8891c1.0315 1.0314 2.4304 1.6109 3.8891 1.6109s2.8577-.5795 3.8891-1.6109c1.0315-1.0315 1.6109-2.4304 1.6109-3.8891s-.5794-2.8576-1.6109-3.8891c-1.0314-1.0314-2.4304-1.6109-3.8891-1.6109z" stroke="url(#c)"/></g></svg>