<svg fill="none" height="40" viewBox="0 0 125 40" width="125" xmlns="http://www.w3.org/2000/svg"><g fill="#fff"><path clip-rule="evenodd" d="m20.4839.717718 12.4901 7.137252.0044.00251c.6698.37895 1.2313.88987 1.665 1.48771.125.11591.235.25219.3248.40742.0841.14542.145.29789.1837.45319.2877.6109.461 1.2776.505 1.9655.0189.1033.0286.2089.0286.3154v14.2888c0 .2314-.0454.4544-.1287.6592-.2214 1.5045-1.0722 2.8489-2.3435 3.6883-.0772.064-.1604.1219-.2492.1726l-12.5027 7.1444-.008.0045c-.4804.2712-.9949.4634-1.5235.576-.2957.2286-.6667.3646-1.0694.3646-.3836 0-.7383-.1234-1.0267-.3326-.5128-.0933-1.0142-.2618-1.4859-.5061-.0601-.0259-.1193-.0554-.1773-.0885l-12.49479-7.1399-.00448-.0025c-1.66144-.9401-2.67133-2.7039-2.67133-4.5936v-14.2888c0-1.9042 1.00746-3.67205 2.67581-4.61386.06562-.03704.13302-.06952.20176-.09745l12.29033-7.023039.0015-.000886c1.6319-.935595 3.6705-.931923 5.3145.019853zm-16.9839 12.645482v13.3587c0 .645.34573 1.2373.89639 1.5482l.00797.0045 11.70614 6.6892v-14.3058zm16.1105 7.295v14.2369l11.4228-6.5273c.055-.042.1127-.0809.1731-.1166.556-.3281.9077-.9336.9077-1.6007 0-.1711.0248-.3376.0714-.4955v-12.771zm10.7532-10.2637-11.6314-6.64658c-.5693-.33052-1.2776-.32606-1.8226-.01339l-11.60308 6.63037 12.55408 7.2621z" fill-rule="evenodd"/><path d="m54.2376 28.9967c-3.096 0-5.532-.816-7.308-2.448s-2.664-3.888-2.664-6.768c0-2.832.888-5.064 2.664-6.696s4.212-2.448 7.308-2.448c1.728 0 3.276.276 4.644.828s2.448 1.332 3.24 2.34c.264.336.396.672.396 1.008 0 .552-.288 1.032-.864 1.44-.264.192-.564.288-.9.288-.672 0-1.248-.264-1.728-.792-.552-.6-1.236-1.056-2.052-1.368-.816-.336-1.728-.504-2.736-.504-1.872 0-3.324.516-4.356 1.548s-1.548 2.484-1.548 4.356c0 1.896.516 3.372 1.548 4.428 1.032 1.032 2.484 1.548 4.356 1.548 2.088 0 3.828-.672 5.22-2.016.576-.576 1.14-.864 1.692-.864.408 0 .756.132 1.044.396.504.384.756.852.756 1.404 0 .408-.156.756-.468 1.044-1.128 1.128-2.364 1.956-3.708 2.484-1.32.528-2.832.792-4.536.792z"/><path d="m76.7261 28.9967c-2.088 0-3.924-.384-5.508-1.152-1.584-.792-2.808-1.884-3.672-3.276-.84-1.392-1.26-2.976-1.26-4.752s.42-3.36 1.26-4.752c.864-1.392 2.088-2.472 3.672-3.24 1.584-.792 3.42-1.188 5.508-1.188s3.924.396 5.508 1.188c1.584.768 2.796 1.848 3.636 3.24.864 1.392 1.296 2.976 1.296 4.752s-.432 3.36-1.296 4.752c-.84 1.392-2.052 2.484-3.636 3.276-1.584.768-3.42 1.152-5.508 1.152zm0-3.24c1.944 0 3.492-.528 4.644-1.584s1.728-2.508 1.728-4.356-.576-3.3-1.728-4.356-2.7-1.584-4.644-1.584c-1.968 0-3.528.528-4.68 1.584-1.128 1.056-1.692 2.508-1.692 4.356s.564 3.3 1.692 4.356c1.152 1.056 2.712 1.584 4.68 1.584z"/><path d="m93.0774 28.9967c-.624 0-1.116-.168-1.476-.504s-.54-.804-.54-1.404v-14.544c0-.6.168-1.068.504-1.404.36-.336.84-.504 1.44-.504.624 0 1.104.168 1.44.504.36.336.54.804.54 1.404v1.512c1.56-2.04 3.612-3.06 6.1556-3.06h.828c.648 0 1.152.144 1.512.432.384.288.576.684.576 1.188 0 .528-.192.936-.576 1.224-.36.264-.864.396-1.512.396h-1.152c-1.7516 0-3.1436.54-4.1756 1.62-1.032 1.056-1.548 2.508-1.548 4.356v6.876c0 .576-.192 1.044-.576 1.404-.36.336-.84.504-1.44.504z"/><path d="m115.203 28.9967c-2.064 0-3.864-.36-5.4-1.08-1.512-.744-2.676-1.8-3.492-3.168-.792-1.368-1.188-2.988-1.188-4.86 0-2.904.864-5.172 2.592-6.804s4.128-2.448 7.2-2.448c1.896 0 3.576.3 5.04.9s2.604 1.44 3.42 2.52c.816 1.056 1.224 2.268 1.224 3.636 0 1.104-.336 1.956-1.008 2.556s-1.62.9-2.844.9h-11.664c0 1.488.528 2.64 1.584 3.456s2.568 1.224 4.536 1.224c1.128 0 2.124-.12 2.988-.36s1.668-.624 2.412-1.152c.696-.456 1.224-.684 1.584-.684.312 0 .636.168.972.504.384.36.576.756.576 1.188 0 .456-.204.84-.612 1.152-2.016 1.68-4.656 2.52-7.92 2.52zm4.32-10.764c.408 0 .708-.084.9-.252s.288-.456.288-.864c0-.984-.528-1.776-1.584-2.376-1.056-.624-2.46-.936-4.212-.936-1.776 0-3.18.408-4.212 1.224-1.032.792-1.548 1.86-1.548 3.204z"/></g></svg>